<svg width="186" height="64" viewBox="0 0 186 64" fill="none" xmlns="http://www.w3.org/2000/svg">
<g clip-path="url(#clip0_3296_15681)">
<path d="M16.2 34.44C7.62 34.44 0 28.32 0 18V15.96C0 8.46 5.76 0 16.14 0C20.28 0 24.3 1.32 27.36 3.9C28.14 4.62 28.2 5.88 27.42 6.6L23.82 10.2C23.46 10.56 22.98 10.74 22.5 10.74C22.14 10.74 21.78 10.62 21.48 10.38C19.98 9.3 18 8.7 16.02 8.7C10.8 8.7 8.52 12.72 8.52 15.54V18.6C8.52 22.44 12.42 25.86 16.2 25.86C19.74 25.86 22.02 24.18 23.34 22.8C23.7 22.44 24.18 22.26 24.66 22.26C25.2 22.26 25.74 22.5 26.1 22.98L28.86 26.58C29.34 27.3 29.34 28.2 28.74 28.86C25.68 32.4 21.12 34.44 16.2 34.44ZM43.44 34.44C36.66 33.9 29.76 28.68 29.64 18.3V15.48H29.7C30.12 5.64 36.84 0.66 43.44 0.12C47.04 -0.18 51 0.84 54.12 3.24C55.14 1.92 56.7 1.02 58.5 1.02H59.88C61.02 1.02 62.04 2.04 62.04 3.24V31.68C62.04 32.7 61.2 33.54 60.18 33.54H59.04C57.9 33.54 56.52 32.52 55.02 30.6C52.08 33.3 48.3 34.5 44.7 34.5C44.28 34.5 43.86 34.5 43.44 34.44ZM45.9 8.64C42.24 8.64 38.52 10.92 38.52 15.36V19.2C38.52 23.64 42.24 25.92 45.9 25.92C49.92 25.92 53.1 23.4 53.1 19.2V15.36C53.1 11.16 49.92 8.64 45.9 8.64ZM80.22 8.94C75.9 8.94 73.62 11.64 73.62 16.62V31.74C73.62 32.7 72.84 33.54 71.82 33.54H66.54C65.58 33.54 64.74 32.7 64.74 31.74V2.88C64.74 1.86 65.58 1.02 66.54 1.02H67.74C68.88 1.02 70.26 2.04 71.82 3.96C73.86 1.62 76.68 0.12 80.58 0.12C82.26 0.12 84 0.42 85.62 1.02C86.46 1.32 86.94 2.28 86.7 3.18L85.32 8.34C85.02 9.42 83.88 10.02 82.86 9.6C82.08 9.24 81.12 8.94 80.22 8.94ZM100.75 31.5C90.55 31.5 85.81 23.46 85.81 15.66C85.81 7.86 90 0.18 101.29 0.18C105.01 0.18 108.07 1.14 110.47 3.06C111.43 1.86 112.93 1.14 114.55 1.14H116.29C117.31 1.14 118.09 1.92 118.09 2.94V28.08C118.09 37.86 111.91 44.7 100.87 44.7C96.91 44.7 93.01 43.56 90.31 41.34C89.59 40.74 89.35 39.72 89.71 38.82L91.21 35.34C91.45 34.68 91.99 34.26 92.65 34.08C93.31 33.9 93.97 34.08 94.51 34.44C95.89 35.52 98.17 36.18 100.63 36.18C105.01 36.18 109.21 34.02 109.21 29.04V28.98C106.69 30.66 103.75 31.5 100.75 31.5ZM101.95 8.82C97.21 8.82 94.57 11.82 94.57 15.78C94.57 19.74 97.39 22.74 101.95 22.74C105.43 22.74 109.15 20.4 109.15 15.78C109.15 11.16 105.37 8.82 101.95 8.82ZM136.63 0C144.43 0 152.83 5.16 152.83 16.5V17.58C152.83 29.16 144.25 34.44 136.27 34.44C128.29 34.44 120.13 29.28 120.13 18V16.86C120.13 5.28 128.71 0 136.63 0ZM144.25 18.9V15.54C144.25 11.16 140.29 8.82 136.39 8.82C132.49 8.82 128.65 10.92 128.65 15.54V18.9C128.65 23.34 132.61 25.62 136.57 25.62C140.29 25.62 144.25 23.52 144.25 18.9Z" fill="#000052"/>
<path d="M132.29 37.05C136.28 37.36 140.27 40.41 140.34 46.46H140.38V48.11H140.34C140.1 53.85 136.17 56.75 132.29 57.07C132.05 57.1 131.8 57.1 131.55 57.1C129.9 57.1 128.15 56.65 126.65 55.67V61.93C126.65 62.53 126.19 62.98 125.6 62.98H122.52C121.96 62.98 121.47 62.52 121.47 61.93V38.62C121.47 38.06 121.96 37.57 122.52 37.57H123.22C123.89 37.57 124.66 38.13 125.57 39.29C127.5 37.54 130.02 36.88 132.29 37.05ZM130.86 51.96C132.99 51.96 135.16 50.63 135.16 48.04V46.08C135.16 43.49 132.99 42.16 130.86 42.16C128.87 42.16 126.66 43.38 126.66 46.08V48.04C126.66 50.73 128.87 51.96 130.86 51.96ZM150.92 57.07C146.96 56.75 142.94 53.71 142.87 47.65V46H142.91C143.15 40.26 147.07 37.36 150.92 37.04C153.02 36.87 155.33 37.46 157.15 38.86C157.75 38.09 158.66 37.56 159.71 37.56H160.51C161.18 37.56 161.77 38.16 161.77 38.86V55.45C161.77 56.05 161.28 56.53 160.68 56.53H160.02C159.35 56.53 158.55 55.93 157.67 54.82C155.95 56.39 153.75 57.09 151.65 57.09C151.41 57.09 151.16 57.09 150.91 57.06L150.92 57.07ZM152.35 42.02C150.22 42.02 148.05 43.35 148.05 45.94V48.18C148.05 50.77 150.22 52.1 152.35 52.1C154.7 52.1 156.55 50.63 156.55 48.18V45.94C156.55 43.49 154.7 42.02 152.35 42.02ZM184.27 37.61C185.04 37.61 185.56 38.42 185.25 39.15L174.57 62.11C174.32 62.67 173.76 63.05 173.14 63.05H169.85C169.05 63.05 168.56 62.24 168.87 61.51L172.05 54.65L164.49 39.14C164.14 38.44 164.67 37.6 165.43 37.6H168.72C169.35 37.6 169.91 37.95 170.15 38.51L174.98 48.34L179.49 38.54C179.77 37.98 180.33 37.6 180.96 37.6H184.25L184.27 37.61Z" fill="#09C7D9"/>
<path d="M117.9 52.54C117.35 52.54 116.9 52.99 116.9 53.54C116.9 54.09 117.35 54.54 117.9 54.54V52.54ZM120.9 54.54H121.9V52.54H120.9V54.54ZM117.9 54.54H120.9V52.54H117.9V54.54Z" fill="#09C7D9"/>
<path d="M114.9 56.54C114.35 56.54 113.9 56.99 113.9 57.54C113.9 58.09 114.35 58.54 114.9 58.54V56.54ZM120.9 58.54H121.9V56.54H120.9V58.54ZM114.9 58.54H120.9V56.54H114.9V58.54Z" fill="#09C7D9"/>
<path d="M111.9 60.54C111.35 60.54 110.9 60.99 110.9 61.54C110.9 62.09 111.35 62.54 111.9 62.54V60.54ZM120.9 62.54H121.9V60.54H120.9V62.54ZM111.9 62.54H120.9V60.54H111.9V62.54Z" fill="#09C7D9"/>
</g>
<defs>
<clipPath id="clip0_3296_15681">
<rect width="185.34" height="63.05" fill="white"/>
</clipPath>
</defs>
</svg>
